<svg width="19" height="20" viewBox="0 0 19 20" fill="none" xmlns="http://www.w3.org/2000/svg">
<path fill-rule="evenodd" clip-rule="evenodd" d="M1.78125 10C1.78125 5.73687 5.23687 2.28125 9.5 2.28125C13.7631 2.28125 17.2188 5.73687 17.2188 10C17.2188 14.2631 13.7631 17.7188 9.5 17.7188C5.23687 17.7188 1.78125 14.2631 1.78125 10ZM12.3579 8.56392C12.4054 8.50062 12.4398 8.42847 12.459 8.35171C12.4782 8.27494 12.4819 8.19511 12.4698 8.11691C12.4577 8.0387 12.4302 7.96369 12.3887 7.8963C12.3472 7.82891 12.2927 7.77049 12.2283 7.72447C12.1639 7.67846 12.091 7.64578 12.0138 7.62835C11.9366 7.61092 11.8567 7.6091 11.7788 7.62299C11.7009 7.63688 11.6265 7.66621 11.5601 7.70924C11.4937 7.75228 11.4366 7.80815 11.3921 7.87358L8.83025 11.4598L7.54458 10.1742C7.43203 10.0693 7.28316 10.0122 7.12934 10.0149C6.97551 10.0176 6.82875 10.0799 6.71997 10.1887C6.61118 10.2975 6.54887 10.4443 6.54615 10.5981C6.54344 10.7519 6.60054 10.9008 6.70542 11.0133L8.48667 12.7946C8.54762 12.8555 8.62109 12.9024 8.70199 12.9321C8.78289 12.9617 8.86927 12.9734 8.95515 12.9663C9.04102 12.9592 9.12432 12.9336 9.19927 12.891C9.27422 12.8485 9.33902 12.7902 9.38917 12.7202L12.3579 8.56392Z" fill="#1A8754"/>
</svg>
