<svg width="16" height="16" viewBox="0 0 16 16" fill="none" xmlns="http://www.w3.org/2000/svg">
<path fill-rule="evenodd" clip-rule="evenodd" d="M2.5 3.33333C2.5 2.87614 2.87614 2.5 3.33333 2.5H10C10.1563 2.5 10.2438 2.53738 10.3083 2.58422C10.3836 2.63891 10.4658 2.7348 10.563 2.90967C10.6972 3.15101 11.0017 3.23785 11.243 3.10364C11.4843 2.96944 11.5712 2.665 11.437 2.42366C11.3062 2.18853 11.1384 1.95109 10.8957 1.77495C10.6422 1.59095 10.3437 1.5 10 1.5H3.33333C2.32386 1.5 1.5 2.32386 1.5 3.33333V10L1.5 10.0012C1.50078 10.3246 1.58691 10.642 1.74969 10.9214C1.91247 11.2008 2.14612 11.4322 2.42704 11.5924C2.66693 11.7291 2.97228 11.6455 3.10904 11.4056C3.2458 11.1657 3.16219 10.8604 2.9223 10.7236C2.79433 10.6507 2.68789 10.5452 2.61374 10.418C2.53968 10.2908 2.50045 10.1464 2.5 9.99933V3.33333ZM5.54098 5.53708C5.78066 5.29741 6.10572 5.16276 6.44467 5.16276H12.222C12.3898 5.16276 12.556 5.19582 12.7111 5.26004C12.8661 5.32427 13.007 5.4184 13.1257 5.53708C13.2444 5.65575 13.3385 5.79664 13.4027 5.95169C13.4669 6.10674 13.5 6.27293 13.5 6.44076V12.2181C13.5 12.3859 13.4669 12.5521 13.4027 12.7072C13.3385 12.8622 13.2444 13.0031 13.1257 13.1218C13.007 13.2404 12.8661 13.3346 12.7111 13.3988C12.556 13.463 12.3898 13.4961 12.222 13.4961H6.44467C6.27684 13.4961 6.11065 13.463 5.9556 13.3988C5.80054 13.3346 5.65966 13.2404 5.54098 13.1218C5.42231 13.0031 5.32817 12.8622 5.26395 12.7072C5.19972 12.5521 5.16667 12.3859 5.16667 12.2181V6.44076C5.16667 6.10181 5.30131 5.77675 5.54098 5.53708ZM6.44467 4.16276C5.8405 4.16276 5.26109 4.40276 4.83388 4.82997C4.40667 5.25718 4.16667 5.8366 4.16667 6.44076V12.2181C4.16667 12.5172 4.22559 12.8135 4.34007 13.0898C4.45455 13.3662 4.62235 13.6174 4.83388 13.8289C5.04541 14.0404 5.29653 14.2082 5.57291 14.3227C5.84929 14.4372 6.14552 14.4961 6.44467 14.4961H12.222C12.5212 14.4961 12.8174 14.4372 13.0938 14.3227C13.3701 14.2082 13.6213 14.0404 13.8328 13.8289C14.0443 13.6174 14.2121 13.3662 14.3266 13.0898C14.4411 12.8135 14.5 12.5172 14.5 12.2181V6.44076C14.5 6.14161 14.4411 5.84539 14.3266 5.56901C14.2121 5.29263 14.0443 5.0415 13.8328 4.82997C13.6213 4.61844 13.3701 4.45064 13.0938 4.33616C12.8174 4.22168 12.5212 4.16276 12.222 4.16276H6.44467Z" fill="#495057"/>
</svg>
