<svg width="19" height="20" viewBox="0 0 19 20" fill="none" xmlns="http://www.w3.org/2000/svg">
<path fill-rule="evenodd" clip-rule="evenodd" d="M7.44221 2.875C8.35659 1.29167 10.6429 1.29167 11.5565 2.875L17.3792 12.9672C18.2928 14.5505 17.1496 16.5297 15.3217 16.5297H3.67705C1.84909 16.5297 0.706713 14.5505 1.6203 12.9672L7.44142 2.875H7.44221ZM9.49975 7.02887C9.65723 7.02887 9.80825 7.09143 9.9196 7.20278C10.0309 7.31413 10.0935 7.46515 10.0935 7.62262V10.5914C10.0935 10.7488 10.0309 10.8999 9.9196 11.0112C9.80825 11.1226 9.65723 11.1851 9.49975 11.1851C9.34228 11.1851 9.19126 11.1226 9.07991 11.0112C8.96856 10.8999 8.906 10.7488 8.906 10.5914V7.62262C8.906 7.46515 8.96856 7.31413 9.07991 7.20278C9.19126 7.09143 9.34228 7.02887 9.49975 7.02887ZM9.49975 13.5601C9.65723 13.5601 9.80825 13.4976 9.9196 13.3862C10.0309 13.2749 10.0935 13.1238 10.0935 12.9664C10.0935 12.8089 10.0309 12.6579 9.9196 12.5465C9.80825 12.4352 9.65723 12.3726 9.49975 12.3726C9.34228 12.3726 9.19126 12.4352 9.07991 12.5465C8.96856 12.6579 8.906 12.8089 8.906 12.9664C8.906 13.1238 8.96856 13.2749 9.07991 13.3862C9.19126 13.4976 9.34228 13.5601 9.49975 13.5601Z" fill="#FFC008"/>
</svg>
